#N canvas 770 160 1109 1132 10;
#X obj 278 13 key;
#X floatatom 278 36 5 0 0 0 - - -;
#X obj 278 58 sel 32;
#X obj 298 254 timer;
#X obj 278 79 f 0;
#X obj 304 78 + 1;
#X obj 275 146 sel 0 4;
#X msg 346 76 0;
#N canvas 0 50 450 250 (subpatch) 0;
#X array time 4 float 3;
#A 0 71.5645 49089.9 21199.8 204613;
#X coords 0 5000 4 0 200 140 1 0 0;
#X restore 78 246 graph;
#X obj 302 302 tabwrite time;
#X obj 278 98 t f f;
#X obj 281 197 bng 15 250 50 0 empty empty empty 17 7 0 10 -262144
-1 -1;
#X obj 383 164 bng 15 250 50 0 empty empty empty 17 7 0 10 -262144
-1 -1;
#X obj 317 202 bng 15 250 50 0 empty empty empty 17 7 0 10 -262144
-1 -1;
#X obj 483 162 tabread time;
#X obj 483 17 bng 15 250 50 0 empty empty empty 17 7 0 10 -262144 -1
-1;
#X floatatom 497 128 5 0 0 0 - - -;
#X obj 480 188 / 3;
#X obj 480 301 netsend;
#X msg 593 226 disconnect;
#X floatatom 460 341 0 0 0 0 - - -;
#X obj 541 339 print backward;
#X floatatom 319 279 5 0 0 0 - - -;
#X msg 467 228 send tempo \$1;
#X obj 568 506 bng 15 250 50 0 empty empty empty 17 7 0 10 -262144
-1 -1;
#X obj 597 550 + 1;
#X obj 568 549 f 0;
#X msg 583 525 0;
#X obj 568 457 tgl 15 0 empty empty empty 17 7 0 10 -262144 -1 -1 0
1;
#X floatatom 598 717 5 0 0 0 - - -;
#X text 681 648 read;
#X obj 675 737 vsl 15 128 0 1 0 0 empty empty empty 0 -9 0 10 -262144
-1 -1 0 1;
#X floatatom 657 914 5 0 0 0 - - -;
#X obj 598 931 osc~ 440;
#X obj 608 957 *~;
#X obj 598 979 dac~ 1 2;
#X obj 657 936 line~ 50;
#X obj 598 850 mtof;
#X text 450 850 convert from MIDI;
#X text 467 718 index for A: 69;
#X obj 568 483 metro;
#X floatatom 883 299 5 0 0 0 - - -;
#X obj 883 321 / 2;
#X text 229 675 *took out line between '/ 3' and 'metro';
#X floatatom 916 359 5 0 0 0 - - -;
#X obj 916 381 / 4;
#X floatatom 963 394 5 0 0 0 - - -;
#X msg 570 183 connect localhost 3000;
#X msg 182 769 listen 0;
#X msg 203 818 send foo \$1;
#X floatatom 203 795 0 0 0 0 - - -;
#X floatatom 248 882 5 0 0 0 - - -;
#X msg 182 743 listen 3000;
#X msg 598 310 send stopLights;
#X obj 523 754 print notes;
#X obj 164 914 print netreceive;
#X obj 443 424 tabwrite sequencer;
#X obj 574 647 tabread sequencer;
#X obj 568 617 % 10;
#X floatatom 566 584 5 0 0 0 - - -;
#X floatatom 574 670 5 0 0 0 - - -;
#X obj 574 692 int;
#X obj 566 402 + 1;
#X obj 537 401 f 0;
#X msg 543 368 0;
#X obj 182 845 netreceive;
#X obj 897 166 random 4;
#X obj 873 249 sel 0 1 2 3;
#X msg 757 491 sequencer const 0;
#N canvas 0 50 450 250 (subpatch) 0;
#X array sequencer 100 float 3;
#A 0 60 65 62 65 69 64 72 69 64 62 62 60 71 67 60 62 64 62 67 60 60
72 67 62 64 64 65 71 69 71 71 67 67 72 67 72 69 69 67 72 72 64 64 69
69 71 71 64 67 71 71 62 60 69 65 71 69 60 67 65 67 65 72 64 60 71 62
71 71 69 60 69 69 67 64 64 64 71 67 67 72 62 65 72 71 60 72 62 65 72
71 64 71 67 60 67 60 64 62 60;
#X coords 0 72 100 60 200 140 1 0 0;
#X restore 260 489 graph;
#X obj 484 372 b;
#X msg 555 271 send startNotes 100;
#X connect 0 0 1 0;
#X connect 1 0 2 0;
#X connect 2 0 4 0;
#X connect 3 0 9 0;
#X connect 3 0 22 0;
#X connect 4 0 5 0;
#X connect 4 0 10 0;
#X connect 5 0 4 1;
#X connect 6 0 11 0;
#X connect 6 1 7 0;
#X connect 6 1 12 0;
#X connect 6 2 13 0;
#X connect 7 0 4 1;
#X connect 10 0 6 0;
#X connect 10 1 9 1;
#X connect 11 0 3 0;
#X connect 13 0 3 1;
#X connect 14 0 17 0;
#X connect 15 0 16 0;
#X connect 16 0 14 0;
#X connect 17 0 23 0;
#X connect 17 0 41 0;
#X connect 17 0 44 0;
#X connect 18 0 20 0;
#X connect 18 1 21 0;
#X connect 18 1 56 0;
#X connect 18 1 70 0;
#X connect 19 0 18 0;
#X connect 23 0 18 0;
#X connect 24 0 26 0;
#X connect 25 0 26 1;
#X connect 26 0 25 0;
#X connect 26 0 59 0;
#X connect 27 0 26 1;
#X connect 28 0 40 0;
#X connect 29 0 37 0;
#X connect 29 0 54 0;
#X connect 31 0 32 0;
#X connect 32 0 36 0;
#X connect 33 0 34 0;
#X connect 34 0 35 0;
#X connect 34 0 35 1;
#X connect 36 0 34 1;
#X connect 37 0 33 0;
#X connect 40 0 24 0;
#X connect 40 0 66 0;
#X connect 41 0 42 0;
#X connect 42 0 40 1;
#X connect 44 0 45 0;
#X connect 45 0 40 1;
#X connect 46 0 40 1;
#X connect 47 0 18 0;
#X connect 49 0 65 0;
#X connect 50 0 49 0;
#X connect 52 0 65 0;
#X connect 53 0 18 0;
#X connect 57 0 60 0;
#X connect 58 0 57 0;
#X connect 59 0 58 0;
#X connect 60 0 61 0;
#X connect 61 0 29 0;
#X connect 62 0 63 1;
#X connect 63 0 62 0;
#X connect 63 0 56 1;
#X connect 64 0 63 1;
#X connect 65 0 55 0;
#X connect 65 1 51 0;
#X connect 66 0 67 0;
#X connect 67 1 41 0;
#X connect 67 2 44 0;
#X connect 67 3 46 0;
#X connect 70 0 63 0;
#X connect 71 0 18 0;
#X connect 71 0 68 0;
#X connect 71 0 64 0;
