#N canvas 742 162 1109 1118 10;
#X obj 278 13 key;
#X floatatom 278 36 5 0 0 0 - - -;
#X obj 278 58 sel 32;
#X obj 298 254 timer;
#X obj 278 79 f 0;
#X obj 304 78 + 1;
#X obj 275 146 sel 0 4;
#X msg 339 65 0;
#N canvas 0 50 450 250 (subpatch) 0;
#X array time 4 float 3;
#A 0 71.5645 761.905 1697.96 2522.27;
#X coords 0 5000 4 0 200 140 1 0 0;
#X restore 78 246 graph;
#X obj 302 302 tabwrite time;
#X obj 278 98 t f f;
#X obj 281 197 bng 15 250 50 0 empty empty empty 17 7 0 10 -262144
-1 -1;
#X obj 383 164 bng 15 250 50 0 empty empty empty 17 7 0 10 -262144
-1 -1;
#X obj 317 202 bng 15 250 50 0 empty empty empty 17 7 0 10 -262144
-1 -1;
#X obj 483 162 tabread time;
#X obj 483 17 bng 15 250 50 0 empty empty empty 17 7 0 10 -262144 -1
-1;
#X floatatom 497 128 5 0 0 0 - - -;
#X obj 480 188 / 3;
#X obj 476 300 netsend;
#X msg 570 183 connect localhost 3000;
#X msg 593 226 disconnect;
#X floatatom 460 341 0 0 0 0 - - -;
#X obj 510 337 print backward;
#X floatatom 319 279 5 0 0 0 - - -;
#X msg 467 228 send tempo \$1;
#X obj 567 541 bng 15 250 50 0 empty empty empty 17 7 0 10 -262144
-1 -1;
#X obj 596 585 + 1;
#X obj 567 584 f 0;
#X msg 582 560 0;
#X obj 567 492 tgl 15 0 empty empty empty 17 7 0 10 -262144 -1 -1 0
1;
#N canvas 0 50 450 250 (subpatch) 0;
#X array sequencer 10 float 3;
#A 0 60 69 67 64 69 71 64 72 74 65.3427;
#X coords 0 77 10 60 200 140 1 0 0;
#X restore 291 497 graph;
#X obj 567 649 tabread sequencer;
#X obj 567 628 % 10;
#X floatatom 567 672 5 0 0 0 - - -;
#X obj 567 694 int;
#X floatatom 567 717 5 0 0 0 - - -;
#X text 597 694 truncate;
#X text 681 648 read;
#X text 603 627 modulo;
#X floatatom 567 607 5 0 0 0 - - -;
#X obj 644 737 vsl 15 128 0 1 0 0 empty empty empty 0 -9 0 10 -262144
-1 -1 0 1;
#X floatatom 626 914 5 0 0 0 - - -;
#X obj 567 931 osc~ 440;
#X obj 567 954 *~;
#X obj 567 979 dac~ 1 2;
#X obj 626 936 line~ 50;
#X obj 567 850 mtof;
#X text 450 850 convert from MIDI;
#X text 467 718 index for A: 69;
#X obj 567 518 metro;
#X obj 849 554 print;
#X obj 889 615 print;
#X obj 929 581 print;
#X obj 977 537 print;
#X floatatom 883 299 5 0 0 0 - - -;
#X obj 883 321 / 2;
#X text 229 675 *took out line between '/ 3' and 'metro';
#X floatatom 916 359 5 0 0 0 - - -;
#X obj 916 381 / 4;
#X floatatom 969 299 5 0 0 0 - - -;
#X obj 969 321 / 8;
#X obj 897 166 random 5;
#X obj 873 249 sel 0 1 2 3 4;
#X obj 979 703 print;
#X floatatom 937 609 5 0 0 0 - - -;
#X connect 0 0 1 0;
#X connect 1 0 2 0;
#X connect 2 0 4 0;
#X connect 3 0 9 0;
#X connect 3 0 23 0;
#X connect 4 0 5 0;
#X connect 4 0 10 0;
#X connect 5 0 4 1;
#X connect 6 0 11 0;
#X connect 6 1 7 0;
#X connect 6 1 12 0;
#X connect 6 2 13 0;
#X connect 7 0 4 1;
#X connect 10 0 6 0;
#X connect 10 1 9 1;
#X connect 11 0 3 0;
#X connect 13 0 3 1;
#X connect 14 0 17 0;
#X connect 15 0 16 0;
#X connect 16 0 14 0;
#X connect 17 0 24 0;
#X connect 17 0 54 0;
#X connect 17 0 57 0;
#X connect 17 0 59 0;
#X connect 18 0 21 0;
#X connect 18 1 22 0;
#X connect 19 0 18 0;
#X connect 20 0 18 0;
#X connect 24 0 18 0;
#X connect 25 0 27 0;
#X connect 26 0 27 1;
#X connect 27 0 26 0;
#X connect 27 0 39 0;
#X connect 28 0 27 1;
#X connect 29 0 49 0;
#X connect 31 0 33 0;
#X connect 32 0 31 0;
#X connect 33 0 34 0;
#X connect 34 0 35 0;
#X connect 35 0 46 0;
#X connect 39 0 32 0;
#X connect 40 0 41 0;
#X connect 41 0 45 0;
#X connect 42 0 43 0;
#X connect 43 0 44 0;
#X connect 43 0 44 1;
#X connect 45 0 43 1;
#X connect 46 0 42 0;
#X connect 49 0 25 0;
#X connect 49 0 61 0;
#X connect 54 0 55 0;
#X connect 55 0 49 1;
#X connect 55 0 51 0;
#X connect 57 0 58 0;
#X connect 58 0 49 1;
#X connect 58 0 52 0;
#X connect 59 0 60 0;
#X connect 60 0 49 1;
#X connect 60 0 53 0;
#X connect 61 0 62 0;
#X connect 62 0 50 0;
#X connect 62 1 54 0;
#X connect 62 2 57 0;
#X connect 62 3 59 0;
#X connect 62 4 64 0;
#X connect 64 0 63 0;
#X connect 64 0 35 0;
